<svg width="168.29mm" height="69.619mm" version="1.1" viewBox="0 0 168.29 69.619" xmlns="http://www.w3.org/2000/svg">
 <g transform="translate(-25.903 -116.48)">
  <g transform="matrix(.8544 0 0 1.1704 285.24 295.11)" stroke="#000" stroke-width=".29613px" aria-label="ERG">
   <path transform="matrix(.30967 0 0 .22606 -303.53 -152.62)" d="m191.4.41016-2.2871 1.8574c-4.1728 3.388-3.5338 5.145 9.9844 27.451l12.271 20.246-3.4023 2.9355c-4.3666 3.7675-6.8242 8.9851-6.8242 14.49 0 2.3391.21336 4.8892.47461 5.666.41334 1.2292-.47862 1.5815-6.8848 2.7246-4.0482.72237-9.1807 1.884-11.406 2.582-21.836 6.8494-40.14 23.279-48.367 43.412-4.8513 11.873-5.0352 14.023-5.0352 59.107 0 32.246-.22486 41.231-1.0371 41.471-.57028.16827-2.4135.52195-4.0957.78515-4.489.70291-10.627 4.9514-13.486 9.3359-1.9664 3.016-2.5593 4.935-2.8086 9.0977-.51409 8.587 3.5996 15.333 11.656 19.123l4.2891 2.0176h224.29l4.4356-2.1856c9.5738-4.7208 13.835-14.897 10.254-24.479-2.5702-6.876-7.8516-11.219-15.666-12.879l-4.2246-.89844-.44922-43.396c-.48697-47.08-.35509-45.676-5.4473-57.883-9.8556-23.631-33.296-41.326-60.154-45.416l-6.2969-.95898.40039-5.2812c.52798-6.9684-.76497-10.377-5.8633-15.465l-4.1484-4.1406 12.236-20.086c13.483-22.131 14.193-24.07 10.035-27.445l-2.2031-1.7891zm24.127 13.436c5.4848-.01349 13.01.0078 21.25.06445l29.965.20508-9.998 16.639-9.9961 16.639h-20.527l-3.2422-5.2852c-8.9727-14.628-16.727-27.874-16.463-28.123.0815-.07697 3.527-.12518 9.0117-.13867zm20.988 47.25c16.714 0 16.893.01794 19.014 1.8984 2.7997 2.4825 2.857 6.2315.14062 9.2148l-2.002 2.1973-16.041.1582c-8.8229.0867-16.603-.04783-17.287-.29688-5.1934-1.8902-6.6932-7.8529-2.8359-11.273 2.121-1.8805 2.2979-1.8984 19.012-1.8984zm0 27.025c33.196 0 37.101.137 43.137 1.5098 8.1018 1.8429 13.231 3.9266 20.432 8.2988 10.452 6.3465 19.546 16.722 24.27 27.695 4.4399 10.311 4.6562 12.993 4.6562 57.609 0 43.696.0456 44.265 3.9707 48.438 1.944 2.0659 7.517 4.3802 10.596 4.4023 6.3469.0434 9.122 7.5418 4.3457 11.742l-.002.002c-1.7954 1.5789-2.4517 1.5879-111.6 1.5879h-109.79l-2.0352-1.9219c-4.3624-4.1179-1.3308-11.366 4.7695-11.406 3.3135-.0204 8.8098-2.3003 10.9-4.5195 3.6707-3.8972 3.7861-5.3971 3.8242-49.561.0341-39.275.14288-42.351 1.6894-48.059 5.9482-21.943 24.187-38.996 47.311-44.229 6.5166-1.4745 9.7003-1.5898 43.529-1.5898zm-31.762 34.648-46.006 35.223c.7687.84239 2.0367 2.0004 3.8047 3.4746 1.8449 1.3689 4.1891 3.054 7.0332 5.0547 5.7655 4.1068 9.4178 7.5297 10.955 10.268l-21.793 17.691v1.1055l46.006 36.328h.80664v-17.217l-12.338-8.5293c-1.1531-.42121-3.1902-1.8946-6.1113-4.4219-1.4606-1.1583-2.7286-2.2124-3.8047-3.1602-.99934-.94771-1.8453-1.7902-2.5371-2.5274l23.523-20.85-10.84-7.8984c-1.9983-1.1583-4.1509-2.5259-6.457-4.1055-2.3061-1.6848-4.3816-3.2132-6.2266-4.582.61498-.73715 1.4993-1.5796 2.6524-2.5274 1.1526-.94773 2.4996-1.9999 4.0371-3.1582 1.6912-1.3689 2.9976-2.474 3.9199-3.3164.99933-.94773 1.6903-1.6844 2.0742-2.2109l12.107-8.8457v-15.795zm65.955 4.2656v105.04l45.664-29.697-13.029-34.906-11.992 7.582 9.2246 21.48h.23047c0 .10528-2.4994 1.8433-7.4961 5.2129-2.8443 1.8954-5.2654 3.4217-7.2637 4.5801-1.9218 1.1583-3.537 1.948-4.8438 2.3691v-63.969l31.363 7.582 2.7676-17.691zm-54.078.78711-.69141.002v104.09h10.031c-.0769-1.053-.15361-1.9484-.23047-2.6855v-21.166c.0769-5.1599.11524-10.74.11524-16.742l28.941 34.592c.0765-.6318.38377-1.5272.92187-2.6856.61497-1.1583 1.2307-2.2634 1.8457-3.3164.69183-1.1583 1.3076-2.1066 1.8457-2.8438.53811-.84243.84502-1.3166.92187-1.4219-1.23-2.2113-5.5345-7.8972-12.914-17.059-7.7639-9.6879-12.184-14.69-13.26-15.006l25.482-21.166zm-180.52 1.0644c-18.328 0-35.813 13.143-35.813 28.457 0 10.49 6.0291 14.59 15.676 14.59-.96467-1.8087-4.2207-4.2197-4.2207-14.107 0-9.5257 4.3417-16.52 12.059-20.258v81.752h17.363l-.002-90.193c-1.5676-.12076-3.2538-.24023-5.0625-.24023zm334 4.7441c-5.3053 0-9.5254 4.3409-9.5254 9.6465 0 5.3056 4.2198 9.5254 9.5254 9.5254s9.6465-4.22 9.6465-9.5254c0-5.3054-4.3412-9.6465-9.6465-9.6465zm41.359 6.6309-17.363 2.4121v16.641h-3.8594v4.8223h3.8594v33.883c-.48235 6.0293-3.8578 10.611-8.5605 10.611-4.7027 0-6.2715-1.5676-6.2715-8.3203v-40.998l-17.363.002v42.322c0 11.214 4.3418 18.691 16.762 18.691 4.7468 0 12.042-1.4454 16.684-9.8242 2.0395 6.1071 6.7657 9.8242 15.51 9.8242 4.8865 0 12.49-1.4963 17.102-10.549 4.1056 7.6333 10.996 10.549 17.506 10.549 8.5613 0 13.023-5.5474 15.555-11.094 1.6881 6.8729 5.909 11.094 14.35 11.094 4.0077 0 9.8365-1.0213 14.35-6.377v5.6524h17.363v-38.707c.48232-5.5467 2.292-11.094 7.1152-11.094 3.9791 0 6.2695 3.7384 6.2695 13.385v.002c0 3.1351-.24023 11.696-.24023 14.59 0 13.625 5.1836 22.549 17.604 22.549 5.2298 0 11.038-1.5905 14.758-10.131 4.1324 7.1242 11.226 10.131 19.729 10.131 12.318 0 19.806-6.3288 24.66-14.18 3.629 10.055 11.66 14.18 21.762 14.18 9.8876 0 17.002-4.0995 17.002-17.846-3.1351 3.3762-8.3204 6.3906-12.902 6.3906-5.0644 0-9.4042-3.1346-10.248-13.625 12.782-.72348 23.029-9.6474 23.029-21.344 0-4.3409-.11894-15.193-16.156-15.193-19.293 0-24.6 20.137-24.6 33.643 0 2.8423.21668 5.4116.59375 7.7734-4.148 5.8155-8.7111 10.072-17.232 10.072-8.0789 0-12.42-3.7375-12.42-18.689 0-11.937 2.7738-26.408 9.2852-26.408 2.8939 0 4.9434 2.7739 4.9434 9.2852 0 1.5676-.12004 2.2908-.36133 3.6172 1.6881.96464 3.7376 1.4473 4.9434 1.4473 2.8939 0 4.7031-3.0142 4.7031-7.2344 0-5.6675-3.3756-13.506-15.916-13.506-20.137 0-24.719 20.259-24.719 33.885 0 3.5315.32416 6.6602.91211 9.4512-1.2262 3.9706-3.0658 6.5859-7.3027 6.5859-4.944 0-5.9102-3.4978-5.9102-10.371 0-4.0998.48242-13.022.48242-17.242 0-16.881-7.7166-22.188-16.881-22.188-4.0998 0-9.1645 1.0846-12.902 6.752v-6.2695h-17.363v43.371c-1.4288 3.5635-4.1003 5.9473-7.4766 5.9473-4.7027 0-6.2715-1.5676-6.2715-8.3203v-40.998h-17.363v5.7871c-2.0499-5.6675-7.3549-6.3906-11.334-6.3906-16.761 0-23.031 18.932-23.031 33.643 0 3.8395.37777 7.201 1.0469 10.146-1.4082 3.6706-4.1223 6.1309-7.5586 6.1309-4.7027 0-6.2695-1.5676-6.2695-8.3203v-36.174h7.3555v-4.8223h-7.3555zm-185.72 10.623c.15372.10528.80783.63234 1.9609 1.5801 1.23.84243 2.9583 2.1571 5.1875 3.9473 2.2292 1.6848 3.9979 3.0544 5.3047 4.1074 1.3837.94773 2.3063 1.5277 2.7676 1.7383l-15.221 10.74zm-143.33 7.666c-3.7382 0-8.8032.96404-12.662 6.752v-6.2715h-17.363v60.289h17.363v-38.705c.48232-6.0289 2.6531-11.094 6.9941-11.094 4.0998 0 6.3906 3.7373 6.3906 13.143v.002c0 3.8586-.24023 11.093-.24023 15.434 0 11.817 3.8574 21.947 15.795 21.947 6.8731 0 10.611-3.7383 10.611-12.42-.6029.4823-1.8076.72266-3.8574.72266-5.0644 0-6.3906-3.4955-6.3906-10.248 0-4.5819.48242-12.542.48242-17.848 0-16.278-7.7176-21.703-17.123-21.703zm539.35 6.5508c2.291 0 4.4609 1.9306 4.4609 8.0801 0 8.4406-5.6672 15.674-13.746 16.277.36173-10.732 3.6179-24.357 9.2852-24.357zm-169.05 1.0859c3.9791 0 5.5465 3.3771 5.9082 4.7031v27.131c0 6.9936-4.3413 10.611-7.8379 10.611-3.0145 0-8.9219-.24057-8.9219-17.363 0-10.49 3.0144-25.082 10.852-25.082z" stroke-width="1.1192px"/>
  </g>
 </g>
</svg>
